# xmcd
#
# Track frame offsets: 
#        150
#        30503
#        58052
#        81586
#        110467
#        129420
#        149077
#        179290
#        209987
#        233617
#        255495
#        276025
#        299449
#
# Disc length: 4384 seconds
#
# Revision: 0
# Processed by: cddbd v1.5.2PL0 Copyright (c) Steve Scherf et al.
# Submitted via: ExactAudioCopy v0.95b4
#
DISCID=cb111e0d
DTITLE=Sattar - Sedaye Baroon
DYEAR=1995
DGENRE=Pop
TTITLE0=Sedaye Baroon
TTITLE1=Bahare Man Gozashte Shayad
TTITLE2=Shabe Virooni
TTITLE3=Monajat
TTITLE4=Safar
TTITLE5=Aab
TTITLE6=Sedaye Zangooleha
TTITLE7=Rafigh
TTITLE8=Aroosak
TTITLE9=Shabo Shame
TTITLE10=Tasvir
TTITLE11=Taazim
TTITLE12=Haraas
EXTD=
EXTT0=
EXTT1=
EXTT2=
EXTT3=
EXTT4=
EXTT5=
EXTT6=
EXTT7=
EXTT8=
EXTT9=
EXTT10=
EXTT11=
EXTT12=
PLAYORDER=
